<svg class="glass" viewBox="0 0 200 200" aria-hidden="true"><ellipse cx="100" cy="186" rx="62" ry="9" fill="url(#gShadow)" stroke="none"/><rect x="42" y="96" width="116" height="82" rx="10" class="g-body"/><rect x="32" y="72" width="136" height="30" rx="8" class="g-body"/><rect x="92" y="72" width="16" height="106" class="g-core-fill"/><path d="M100 72C88 42 56 46 66 68M100 72c12-30 44-26 34-4" class="g-tube-edge" stroke-width="12"/><path d="M100 72C88 42 56 46 66 68M100 72c12-30 44-26 34-4" class="g-tube" stroke-width="8"/><path d="M100 72C88 42 56 46 66 68M100 72c12-30 44-26 34-4" class="g-core" stroke-width="3"/><path d="M52 108v58" class="g-shine"/></svg>