<svg class="glass" viewBox="0 0 200 200" aria-hidden="true"><ellipse cx="100" cy="186" rx="62" ry="9" fill="url(#gShadow)" stroke="none"/><path d="M62 40h76c0 38-24 52-38 60 14 8 38 22 38 60H62c0-38 24-52 38-60-14-8-38-22-38-60z" class="g-body"/><path d="M80 152c2-18 12-28 20-32 8 4 18 14 20 32z" class="g-core-fill"/><path d="M84 58h32c-4 12-10 18-16 22-6-4-12-10-16-22z" class="g-core-fill" opacity=".55"/><rect x="50" y="28" width="100" height="14" rx="7" class="g-body"/><rect x="50" y="158" width="100" height="14" rx="7" class="g-body"/><path d="M58 35h84M58 165h84" class="g-core" stroke-width="3"/><path d="M72 50c2 16 10 28 20 36" class="g-shine"/></svg>